<svg version="1.1" id="canvas" width="2000" height="2000" viewBox="0 0 250 100" xmlns="http://www.w3.org/2000/svg">
    <path d="M 9.296806022131378 29.000000000000004,A 5 5 0 0 1 11.461869531592473 25.250000000000004,L 47.8349364905389 4.25,A 5 5 0 0 1 52.1650635094611 4.25,L 88.53813046840753 25.250000000000004,A 5 5 0 0 1 90.70319397786862 29.000000000000004,L 90.70319397786862 71,A 5 5 0 0 1 88.53813046840753 74.75,L 52.1650635094611 95.75,A 5 5 0 0 1 47.8349364905389 95.75,L 11.461869531592473 74.75,A 5 5 0 0 1 9.296806022131378 71 Z" fill="#e3f2fd"></path>
    <path d="M 11.461869531592477 30.250000000000004,A 5 5 0 0 1 13.626933041053572 26.500000000000004,L 47.8349364905389 6.75,A 5 5 0 0 1 52.1650635094611 6.75,L 86.37306695894644 26.500000000000004,A 5 5 0 0 1 88.53813046840753 30.250000000000004,L 88.53813046840753 69.75,A 5 5 0 0 1 86.37306695894644 73.5,L 52.1650635094611 93.25,A 5 5 0 0 1 47.8349364905389 93.25,L 13.626933041053574 73.5,A 5 5 0 0 1 11.461869531592477 69.75 Z" fill="none" stroke="#003559" stroke-width="2"></path>
    <path d="M 50 45 L 22.28718707889796 29 L 50 13 L 77.71281292110204 29 Z" fill="#61a5c2"></path>
    <path d="M 54.33012701892219 52.5 L 82.04293994002424 36.5 L 82.04293994002424 68.5 L 54.33012701892219 84.5 Z" fill="#014f86"></path>
    <path d="M 45.66987298107781 52.5 L 45.66987298107781 84.5 L 17.957060059975767 68.5 L 17.957060059975767 36.5 Z" fill="#013a63"></path>
    <text x="105" y="42" font-family="Arial" font-weight="bold" font-size="64" fill="#031726" text-anchor="start" alignment-baseline="middle">ARX</text>
    <text x="110" y="75" font-family="Arial" font-weight="bold" font-size="12" fill="#031726" text-anchor="start" alignment-baseline="middle">Deduplicating Archiver</text>
</svg>
